Coordinates
version=1
nRows=14
nColumns=36
inDegrees=yes

Units are S.I. units (second, meters, Newtons, ...)
If the header above contains a line with 'inDegrees', this indicates whether rotational values are in degrees (yes) or radians (no).

endheader
time	pelvis_tilt	pelvis_list	pelvis_rotation	pelvis_tx	pelvis_ty	pelvis_tz	hip_flexion_r	hip_adduction_r	hip_rotation_r	knee_angle_r	knee_angle_r_beta	ankle_angle_r	subtalar_angle_r	mtp_angle_r	hip_flexion_l	hip_adduction_l	hip_rotation_l	knee_angle_l	knee_angle_l_beta	ankle_angle_l	subtalar_angle_l	mtp_angle_l	lumbar_extension	lumbar_bending	lumbar_rotation	arm_flex_r	arm_add_r	arm_rot_r	elbow_flex_r	pro_sup_r	arm_flex_l	arm_add_l	arm_rot_l	elbow_flex_l	pro_sup_l
      1.07000000	    -15.22860919	     -1.59979443	     -5.37665235	     -0.37985566	      0.65374992	     -0.53711361	     78.73202731	      6.37354153	      1.64628835	     85.94920143	      1.50009655	     22.08543418	    -12.94717860	     -7.51047542	     78.78962854	     -9.41252373	      3.94440308	     90.33908997	      1.57671456	     26.81844128	     -3.00035225	     -7.51047542	    -39.34582501	     -1.00724608	     -2.86577531	     -0.61521034	    -17.00937101	    -17.84054331	     79.67775599	    106.31825123	      8.97129846	    -24.73673134	     -7.78679323	    109.45829998	    107.03933282
      1.08000000	    -15.49971355	     -1.89738447	     -6.22304384	     -0.37755842	      0.64433823	     -0.53884684	     80.18121388	      7.00031198	      1.55736941	     87.78739234	      1.53217904	     22.66762128	    -12.25800001	     -7.51032354	     80.15502205	     -9.75034716	      4.69579462	     92.59977327	      1.61617093	     27.72300236	     -3.34413858	     -7.51032354	    -40.85477029	     -0.77687421	     -2.38346560	      6.85802381	    -16.74276312	    -13.68131104	     80.24911059	    106.56123069	     15.35525905	    -24.87979475	     -4.36620794	    109.49924943	    107.27837094
      1.09000000	    -15.70130905	     -2.06349888	     -6.88093683	     -0.37530950	      0.63565338	     -0.54086029	     81.50633882	      7.26648334	      1.35497827	     89.53562277	      1.56269142	     23.25890334	    -11.52209629	     -7.51018750	     81.51866147	     -9.81142847	      5.29701156	     94.78564747	      1.65432163	     28.17110558	     -3.61350359	     -7.51018750	    -42.24697247	     -0.58303147	     -2.13138165	     14.26832488	    -16.10692033	     -9.41205993	     80.93593585	    106.97069071	     21.72676906	    -25.18181179	     -0.77842802	    109.89640000	    107.69890771
      1.10000000	    -15.87567702	     -2.05818722	     -7.36751449	     -0.37301846	      0.62756099	     -0.54305192	     82.71961197	      7.16641851	      1.08632556	     91.20894674	      1.59189643	     23.93439568	    -10.81090323	     -7.51005154	     82.79487752	     -9.69281662	      5.65060712	     96.86541116	      1.69062036	     28.40635514	     -3.94851206	     -7.51005154	    -43.51943494	     -0.38616562	     -2.08053217	     21.46217022	    -15.13883577	     -5.24578572	     81.89998097	    107.35925424	     28.06953834	    -25.42127276	      2.85434215	    110.57310644	    108.11236949
      1.11000000	    -16.10762788	     -1.75266267	     -7.73206511	     -0.37095229	      0.61991855	     -0.54522872	     83.89093107	      6.87285489	      1.13430613	     92.76934891	      1.61913058	     25.30988687	     -9.33687213	     -7.50968341	     83.94039000	     -9.47065086	      5.58589046	     98.62439407	      1.72132040	     28.61933558	     -4.41320750	     -7.50968341	    -44.46574430	     -0.32742828	     -2.15697088	     28.40783340	    -14.10645379	     -0.97384583	     82.84902767	    107.70935235	     34.50415879	    -25.34075112	      6.47141324	    111.03248354	    108.51156033
      1.12000000	    -16.45123581	     -1.37773245	     -8.07616423	     -0.36925595	      0.61278308	     -0.54691448	     85.10094200	      6.73193026	      1.31727413	     94.11000350	      1.64252942	     25.80447455	     -9.16381708	     -7.50957712	     85.01745444	     -9.35466466	      5.38700165	    100.07411257	      1.74662276	     28.95903912	     -4.70552573	     -7.50957712	    -45.21139315	     -0.40362141	     -2.17304431	     35.00706456	    -12.89238131	      2.87833476	     84.18679276	    107.97420680	     40.94936884	    -25.16097837	     10.06756462	    112.02581608	    108.84149542
      1.13000000	    -16.69252403	     -0.86864875	     -8.45843244	     -0.36757255	      0.60683324	     -0.54799570	     86.10479204	      6.70480554	      1.73179808	     95.26844103	      1.66274797	     26.56293356	     -8.59624000	     -7.50938652	     85.68300930	     -9.43369195	      4.89735548	    101.14173829	      1.76525634	     29.49997218	     -4.94030224	     -7.50938652	    -45.78115401	     -0.84112648	     -2.06758974	     41.37576297	    -11.56545778	      6.32299862	     85.13363829	    108.08676993	     47.68961872	    -24.55193601	     13.74444292	    112.12150431	    109.03649534
      1.14000000	    -16.99248872	     -0.47102482	     -8.78026562	     -0.36550389	      0.60181306	     -0.54900845	     87.04223391	      6.62277359	      1.95732890	     96.29640738	      1.68068937	     27.11353876	     -8.13627997	     -7.50921776	     86.23227726	     -9.57736511	      4.45360953	    102.01076827	      1.78042378	     30.20384790	     -5.01959922	     -7.50921776	    -46.20326496	     -1.21948208	     -1.89856303	     47.48734781	     -9.96839944	      8.87368056	     86.06447735	    108.14477606	     54.15305998	    -23.63816788	     17.29099968	    112.81101711	    109.23569615
      1.15000000	    -17.33932824	     -0.16043402	     -9.07032751	     -0.36319398	      0.59779895	     -0.55018014	     87.86702000	      6.53654444	      2.13119840	     97.12508817	      1.69515257	     27.47797004	     -7.76938342	     -7.50910174	     86.66477369	     -9.77141235	      4.02473241	    102.66645426	      1.79186766	     30.97364742	     -5.05482040	     -7.50910174	    -46.43856948	     -1.46164962	     -1.75676268	     53.42056790	     -8.36100575	     11.23472806	     87.14351821	    108.23177165	     60.24086368	    -22.65264110	     20.48121752	    113.67287712	    109.40696536
      1.16000000	    -17.64788773	      0.14280660	     -9.31192539	     -0.36080978	      0.59474882	     -0.55154464	     88.49761455	      6.43026365	      2.37470581	     97.77685407	      1.70652804	     27.86649320	     -7.37859197	     -7.50899291	     86.96854500	     -9.99506452	      3.50015892	    103.19586430	      1.80110761	     31.67051901	     -4.94786340	     -7.50899291	    -46.55957646	     -1.65682380	     -1.62981016	     59.08439238	     -7.07431223	     13.64673027	     88.60660327	    108.31585488	     66.14029507	    -21.60681007	     23.23865812	    114.47594178	    109.52321171
      1.17000000	    -17.82974238	      0.46490503	     -9.50706198	     -0.35848018	      0.59258633	     -0.55291755	     88.90810080	      6.28858093	      2.68610818	     98.34246003	      1.71639972	     28.68369591	     -6.42029152	     -7.50858247	     87.10308708	    -10.23745489	      2.91146164	    103.64442208	      1.80893642	     32.48889560	     -4.32841986	     -7.50858247	    -46.64627038	     -1.88977524	     -1.39920896	     64.52403013	     -6.18040471	     15.76608417	     90.54306803	    107.88521840	     72.10642531	    -20.34870463	     25.89116512	    114.83523408	    109.26564597
      1.18000000	    -18.11009497	      0.65951331	     -9.58099853	     -0.35604577	      0.59129418	     -0.55432274	     89.25901380	      6.12613069	      2.83311075	     98.68442882	      1.72236820	     28.82597577	     -6.38323483	     -7.50849951	     87.32542423	    -10.34410254	      2.53143963	    103.92397284	      1.81381550	     32.65713051	     -4.24068478	     -7.50849951	    -46.60442195	     -1.83903116	     -1.49893400	     70.17806491	     -5.15299719	     18.06988298	     92.16247041	    107.97789360	     77.74665257	    -19.51011276	     27.71319889	    115.79296668	    109.44150256
      1.19000000	    -18.25763001	      0.93160118	     -9.54647744	     -0.35326181	      0.59112161	     -0.55561704	     89.33945111	      5.95506933	      3.15208944	     98.98845303	      1.72767443	     29.14008107	     -6.39352883	     -7.50836183	     87.20830417	    -10.31283399	      2.05659270	    104.03450361	      1.81574462	     32.97644784	     -4.01683950	     -7.50836183	    -46.48504602	     -1.90495519	     -1.80093043	     75.78556834	     -4.40043477	     20.28426420	     93.68154462	    107.90815340	     83.37037817	    -18.85761930	     29.87873771	    116.17491432	    109.56505085
      1.20000000	    -18.45629905	      1.14061557	     -9.33400121	     -0.35039878	      0.59170173	     -0.55693559	     89.30365291	      5.70721830	      3.44349277	     99.12647692	      1.73008340	     29.44374324	     -6.53644816	     -7.50825249	     87.03188875	    -10.07365043	      1.72805408	    103.95252784	      1.81431388	     33.27261077	     -3.72691108	     -7.50825249	    -46.16753539	     -1.90479899	     -2.24171962	     81.24354421	     -3.94711638	     22.17598180	     95.26585756	    107.83849443	     88.88783891	    -18.09663750	     31.48623657	    116.37180905	    109.62741671
